# xmcd
#
# Track frame offsets:
#	150
#	25913
#	46126
#	67051
#	88314
#	112164
#	131289
#	160502
#	185477
#	220240
#	238540
#	263815
#	281328
#	306978
#
# Disc length: 4326 seconds
#
# Revision: 1
# Processed by: cddbd v1.5.2PL0 Copyright (c) Steve Scherf et al.
# Submitted via: audiograbber 1.83.01
#
DISCID=c610e40e
DTITLE=Isley Brothers - Essential
DYEAR=1997
DGENRE=R&B
TTITLE0=Don't Say Goodnight (Is Time For Real)
TTITLE1=Voyage To Atlantis
TTITLE2=Choosey Lover
TTITLE3=For The Love Of You (Part 1&2)
TTITLE4=At Your Best - You Are Love
TTITLE5=The Highways Of My Life
TTITLE6=Let Me Down Easy
TTITLE7=Hello It's Me
TTITLE8=Make Me Say It Again Girl
TTITLE9=Brown Eyad Girl
TTITLE10=Between The Sheets
TTITLE11=Don't Let Me Be Lomely Tonight
TTITLE12=Caravan of Lovel
TTITLE13=Haverst For The World (Lp)
EXTD=
EXTT0=
EXTT1=
EXTT2=
EXTT3=
EXTT4=
EXTT5=
EXTT6=
EXTT7=
EXTT8=
EXTT9=
EXTT10=
EXTT11=
EXTT12=
EXTT13=
PLAYORDER=
